<svg width="16" height="26" viewBox="0 0 16 26" fill="none" xmlns="http://www.w3.org/2000/svg">
<path fill-rule="evenodd" clip-rule="evenodd" d="M15.6643 0.287591C15.7707 0.378523 15.8552 0.486546 15.9128 0.605474C15.9704 0.724401 16 0.851896 16 0.980656C16 1.10942 15.9704 1.23691 15.9128 1.35584C15.8552 1.47477 15.7707 1.58279 15.6643 1.67372L2.76019 12.7275L15.6643 23.7813C15.8789 23.9652 15.9994 24.2145 15.9994 24.4744C15.9994 24.7344 15.8789 24.9837 15.6643 25.1675C15.4498 25.3513 15.1588 25.4545 14.8554 25.4545C14.552 25.4545 14.261 25.3513 14.0465 25.1675L0.335671 13.4206C0.229268 13.3297 0.144848 13.2216 0.0872482 13.1027C0.0296482 12.9838 0 12.8563 0 12.7275C0 12.5988 0.0296482 12.4713 0.0872482 12.3523C0.144848 12.2334 0.229268 12.1254 0.335671 12.0345L14.0465 0.287591C14.1526 0.196429 14.2787 0.124101 14.4175 0.0747518C14.5563 0.0254023 14.7051 0 14.8554 0C15.0057 0 15.1545 0.0254023 15.2933 0.0747518C15.4321 0.124101 15.5582 0.196429 15.6643 0.287591Z" fill="#448337"/>
</svg>
